STARTFONT 2.1
FONT -FontForge-Untitled1-Regular-R-Normal--6-60-75-75-C-60-ISO8859-1
SIZE 6 75 75
FONTBOUNDINGBOX 5 6 1 -1
COMMENT "Generated by fontforge, http://fontforge.sourceforge.net"
COMMENT "Copyright (c) 2025, Taylor Faragher"
STARTPROPERTIES 29
FOUNDRY "FontForge"
FAMILY_NAME "Untitled1"
WEIGHT_NAME "Regular"
SLANT "R"
SETWIDTH_NAME "Normal"
ADD_STYLE_NAME ""
PIXEL_SIZE 6
POINT_SIZE 60
RESOLUTION_X 75
RESOLUTION_Y 75
SPACING "C"
AVERAGE_WIDTH 60
CHARSET_REGISTRY "ISO8859"
CHARSET_ENCODING "1"
FONTNAME_REGISTRY ""
CHARSET_COLLECTIONS "ISOLatin1Encoding"
FONT_NAME "Untitled1"
FACE_NAME "Untitled1"
COPYRIGHT "Copyright (c) 2025, Taylor Faragher"
FONT_VERSION "001.000"
FONT_ASCENT 5
FONT_DESCENT 1
UNDERLINE_POSITION 0
UNDERLINE_THICKNESS 0
CAP_HEIGHT 4
RAW_ASCENT 857
RAW_DESCENT 142
FIGURE_WIDTH -1
AVG_UPPERCASE_WIDTH 60
ENDPROPERTIES
CHARS 27
STARTCHAR A
ENCODING 65
SWIDTH 1000 0
DWIDTH 6 0
BBX 4 5 1 0
BITMAP
F0
90
F0
90
90
ENDCHAR
STARTCHAR B
ENCODING 66
SWIDTH 1000 0
DWIDTH 6 0
BBX 3 5 1 0
BITMAP
E0
A0
C0
A0
E0
ENDCHAR
STARTCHAR C
ENCODING 67
SWIDTH 1000 0
DWIDTH 6 0
BBX 3 5 1 0
BITMAP
E0
80
80
80
E0
ENDCHAR
STARTCHAR D
ENCODING 68
SWIDTH 1000 0
DWIDTH 6 0
BBX 4 5 1 0
BITMAP
E0
90
90
90
E0
ENDCHAR
STARTCHAR E
ENCODING 69
SWIDTH 1000 0
DWIDTH 6 0
BBX 3 5 2 0
BITMAP
E0
80
E0
80
E0
ENDCHAR
STARTCHAR F
ENCODING 70
SWIDTH 1000 0
DWIDTH 6 0
BBX 3 5 2 0
BITMAP
E0
80
E0
80
80
ENDCHAR
STARTCHAR G
ENCODING 71
SWIDTH 1000 0
DWIDTH 6 0
BBX 4 6 1 -1
BITMAP
60
90
80
B0
90
60
ENDCHAR
STARTCHAR H
ENCODING 72
SWIDTH 1000 0
DWIDTH 6 0
BBX 4 5 1 0
BITMAP
90
90
F0
90
90
ENDCHAR
STARTCHAR I
ENCODING 73
SWIDTH 1000 0
DWIDTH 6 0
BBX 1 5 3 0
BITMAP
80
80
80
80
80
ENDCHAR
STARTCHAR J
ENCODING 74
SWIDTH 1000 0
DWIDTH 6 0
BBX 3 5 1 0
BITMAP
20
20
20
A0
E0
ENDCHAR
STARTCHAR K
ENCODING 75
SWIDTH 1000 0
DWIDTH 6 0
BBX 3 5 2 0
BITMAP
A0
A0
C0
A0
A0
ENDCHAR
STARTCHAR L
ENCODING 76
SWIDTH 1000 0
DWIDTH 6 0
BBX 3 5 2 0
BITMAP
80
80
80
80
E0
ENDCHAR
STARTCHAR M
ENCODING 77
SWIDTH 1000 0
DWIDTH 6 0
BBX 5 5 1 0
BITMAP
88
D8
A8
88
88
ENDCHAR
STARTCHAR N
ENCODING 78
SWIDTH 1000 0
DWIDTH 6 0
BBX 5 5 1 0
BITMAP
88
C8
A8
98
88
ENDCHAR
STARTCHAR O
ENCODING 79
SWIDTH 1000 0
DWIDTH 6 0
BBX 4 5 1 0
BITMAP
F0
90
90
90
F0
ENDCHAR
STARTCHAR P
ENCODING 80
SWIDTH 1000 0
DWIDTH 6 0
BBX 3 5 2 0
BITMAP
E0
A0
E0
80
80
ENDCHAR
STARTCHAR Q
ENCODING 81
SWIDTH 1000 0
DWIDTH 6 0
BBX 4 5 1 0
BITMAP
F0
90
90
A0
D0
ENDCHAR
STARTCHAR R
ENCODING 82
SWIDTH 1000 0
DWIDTH 6 0
BBX 4 5 1 0
BITMAP
F0
90
F0
A0
90
ENDCHAR
STARTCHAR S
ENCODING 83
SWIDTH 1000 0
DWIDTH 6 0
BBX 4 5 1 0
BITMAP
F0
80
F0
10
F0
ENDCHAR
STARTCHAR T
ENCODING 84
SWIDTH 1000 0
DWIDTH 6 0
BBX 5 5 1 0
BITMAP
F8
20
20
20
20
ENDCHAR
STARTCHAR U
ENCODING 85
SWIDTH 1000 0
DWIDTH 6 0
BBX 4 5 1 0
BITMAP
90
90
90
90
F0
ENDCHAR
STARTCHAR V
ENCODING 86
SWIDTH 1000 0
DWIDTH 6 0
BBX 5 5 1 0
BITMAP
88
88
88
50
20
ENDCHAR
STARTCHAR W
ENCODING 87
SWIDTH 1000 0
DWIDTH 6 0
BBX 5 5 1 0
BITMAP
A8
A8
A8
A8
F8
ENDCHAR
STARTCHAR X
ENCODING 88
SWIDTH 1000 0
DWIDTH 6 0
BBX 5 5 1 0
BITMAP
88
50
20
50
88
ENDCHAR
STARTCHAR Y
ENCODING 89
SWIDTH 1000 0
DWIDTH 6 0
BBX 5 5 1 0
BITMAP
88
50
20
20
20
ENDCHAR
STARTCHAR Z
ENCODING 90
SWIDTH 1000 0
DWIDTH 6 0
BBX 4 5 1 0
BITMAP
F0
10
20
40
F0
ENDCHAR
STARTCHAR periodcentered
ENCODING 183
SWIDTH 1000 0
DWIDTH 6 0
BBX 1 1 3 0
BITMAP
80
ENDCHAR
ENDFONT
